HIERARCHY
ROOT Hips
{
	OFFSET	0.00	0.00	0.00
	CHANNELS 6 Xposition Yposition Zposition Zrotation Xrotation Yrotation
	JOINT Chest
	{
		OFFSET	0.00	6.28	0.00
		CHANNELS 3 Zrotation Xrotation Yrotation
		JOINT Neck
		{
			OFFSET	0.00	14.30	0.00
			CHANNELS 3 Zrotation Xrotation Yrotation
			JOINT Head
			{
				OFFSET	0.00	2.64	0.00
				CHANNELS 3 Zrotation Xrotation Yrotation
				End Site
				{
					OFFSET	0.00	4.50	0.00
				}
			}
		}
		JOINT LeftCollar
		{
			OFFSET	1.12	11.36	1.87
			CHANNELS 3 Zrotation Xrotation Yrotation
			JOINT LeftUpArm
			{
				OFFSET	4.57	2.02	-1.82
				CHANNELS 3 Zrotation Xrotation Yrotation
				JOINT LeftLowArm
				{
					OFFSET	0.22	-10.35	-0.06
					CHANNELS 3 Zrotation Xrotation Yrotation
					JOINT LeftHand
					{
						OFFSET	0.09	-10.35	2.18
						CHANNELS 3 Zrotation Xrotation Yrotation
						End Site
						{
							OFFSET	0.13	-6.69	1.71
						}
					}
				}
			}
		}
		JOINT RightCollar
		{
			OFFSET	-1.12	11.36	1.87
			CHANNELS 3 Zrotation Xrotation Yrotation
			JOINT RightUpArm
			{
				OFFSET	-4.71	2.03	-1.82
				CHANNELS 3 Zrotation Xrotation Yrotation
				JOINT RightLowArm
				{
					OFFSET	-0.26	-10.43	-0.06
					CHANNELS 3 Zrotation Xrotation Yrotation
					JOINT RightHand
					{
						OFFSET	0.00	-10.26	2.18
						CHANNELS 3 Zrotation Xrotation Yrotation
						End Site
						{
							OFFSET	-0.14	-6.67	1.71
						}
					}
				}
			}
		}
	}
	JOINT LeftUpLeg
	{
		OFFSET	3.91	0.00	0.00
		CHANNELS 3 Zrotation Xrotation Yrotation
		JOINT LeftLowLeg
		{
			OFFSET	-0.44	-17.57	1.70
			CHANNELS 3 Zrotation Xrotation Yrotation
			JOINT LeftFoot
			{
				OFFSET	-0.04	-17.20	-1.48
				CHANNELS 3 Zrotation Xrotation Yrotation
				End Site
				{
					OFFSET	0.00	-3.93	5.23
				}
			}
		}
	}
	JOINT RightUpLeg
	{
		OFFSET	-3.91	0.00	0.00
		CHANNELS 3 Zrotation Xrotation Yrotation
		JOINT RightLowLeg
		{
			OFFSET	0.44	-17.62	1.70
			CHANNELS 3 Zrotation Xrotation Yrotation
			JOINT RightFoot
			{
				OFFSET	0.00	-17.14	-1.48
				CHANNELS 3 Zrotation Xrotation Yrotation
				End Site
				{
					OFFSET	0.00	-4.04	5.23
				}
			}
		}
	}
}
MOTION
Frames: 26
Frame Time: 0.04
9.95	4.63	10.63	-2.80	0.69	113.83	-5.54	-17.87	-5.30	5.90	-12.36	-25.29	24.45	-35.89	20.91	0.58	2.19	-7.77	23.05	7.89	-27.52	-4.68	2.84	3.58	-5.65	2.52	-1.20	9.61	-4.13	4.87	-18.33	14.25	21.60	-6.58	6.97	1.50	20.89	3.21	4.39	3.31	6.67	-2.94	-2.49	15.47	-3.70	-3.08	-12.38	-0.50	1.62	12.99	-14.97	2.56	8.32	5.96	2.87	-12.86	5.33	
10.26	4.61	10.59	-3.32	0.53	113.50	-5.55	-17.79	-5.29	5.94	-12.36	-25.20	24.26	-35.83	20.72	0.73	2.02	-7.88	22.86	7.68	-24.81	-4.72	2.94	3.60	-6.29	2.54	-1.33	9.53	-4.27	4.81	-18.16	14.12	22.22	-5.70	6.80	1.55	18.48	3.03	3.90	3.31	6.67	-2.90	-2.46	15.27	-3.57	-3.50	-12.36	-0.55	1.67	13.00	-15.24	2.56	8.02	6.06	3.20	-12.72	5.36	
10.59	4.59	10.53	-3.85	0.39	113.11	-5.57	-17.73	-5.24	6.00	-12.33	-25.16	24.11	-35.80	20.57	0.87	1.90	-8.02	22.90	7.97	-31.15	-4.31	2.32	3.63	-4.96	2.51	-1.05	9.53	-4.38	4.78	-18.16	14.22	22.23	-5.81	6.86	1.56	18.50	3.03	3.90	3.17	6.26	-1.16	-2.62	16.19	-4.18	-2.14	-12.79	-0.41	1.62	13.12	-14.67	2.54	7.59	5.98	3.77	-12.62	5.42	
10.95	4.55	10.47	-4.38	0.24	112.69	-5.93	-18.28	-4.85	6.34	-11.28	-25.68	24.20	-36.12	20.74	3.56	-3.36	-10.78	19.57	13.81	-30.95	-4.34	2.35	3.61	-4.96	2.51	-1.05	7.74	-7.88	5.75	-15.59	18.47	21.59	-5.90	6.91	1.56	18.36	3.02	3.87	3.23	6.56	-1.88	-2.47	15.59	-3.60	-2.20	-12.49	-0.40	1.59	13.13	-14.30	2.55	7.44	6.10	3.50	-12.51	5.39	
11.35	4.50	10.41	-4.96	0.06	112.31	-6.08	-18.22	-4.71	6.56	-11.34	-25.64	23.94	-36.19	20.52	3.56	-2.93	-10.79	19.86	13.33	-31.10	-4.39	2.38	3.64	-5.20	2.51	-1.10	8.07	-7.75	5.49	-15.82	18.28	21.34	-6.00	6.96	1.56	18.29	3.02	3.86	3.26	6.65	-1.44	-2.46	15.45	-3.57	-2.38	-12.49	-0.42	1.50	13.26	-13.17	2.52	7.09	5.98	3.87	-12.47	5.42	
11.79	4.43	10.33	-5.59	-0.11	111.96	-6.21	-18.21	-4.66	6.68	-11.33	-25.70	23.86	-36.11	20.42	3.66	-2.91	-10.91	19.93	13.41	-29.34	-5.09	2.59	4.05	-4.75	2.50	-1.01	8.21	-7.84	5.33	-15.89	18.44	21.52	-6.18	7.04	1.60	18.19	3.01	3.84	3.27	6.73	-1.12	-2.45	15.34	-3.50	-2.55	-12.53	-0.45	1.44	13.44	-12.54	2.50	6.69	5.87	4.49	-12.47	5.49	
12.26	4.35	10.25	-6.19	-0.28	111.66	-6.36	-18.14	-4.59	6.82	-11.29	-25.73	23.71	-36.09	20.29	3.87	-3.12	-11.17	19.80	13.65	-29.42	-5.17	2.60	4.12	-4.78	2.50	-1.01	8.16	-8.09	5.23	-15.70	18.73	21.43	-6.22	7.06	1.61	18.12	3.01	3.83	3.30	6.90	-0.66	-2.46	15.24	-3.55	-2.69	-12.59	-0.47	1.46	13.73	-12.04	2.50	6.24	5.96	4.37	-12.41	5.47	
12.77	4.26	10.15	-6.92	-0.44	111.44	-6.42	-18.13	-4.67	6.72	-11.24	-26.53	24.43	-35.34	20.75	3.81	-3.12	-11.18	19.81	13.67	-29.52	-5.20	2.67	4.14	-4.81	2.51	-1.02	8.13	-8.09	5.27	-15.66	18.81	21.11	-6.21	7.04	1.60	18.14	3.01	3.83	3.26	6.98	-0.13	-2.49	15.20	-3.70	-2.99	-12.76	-0.51	1.48	14.06	-11.92	2.47	5.63	5.90	4.98	-12.41	5.54	
13.33	4.15	10.04	-7.70	-0.60	111.21	-6.54	-18.12	-4.64	6.80	-11.25	-26.43	24.31	-35.34	20.64	3.73	-2.92	-11.13	19.91	13.36	-28.14	-5.16	2.90	4.10	-5.54	2.52	-1.18	8.28	-8.03	5.22	-15.78	18.94	20.18	-7.15	7.24	1.47	20.52	3.18	4.31	3.30	7.23	-0.67	-2.39	14.76	-3.29	-2.90	-12.52	-0.49	1.48	14.38	-11.68	2.45	5.04	5.89	5.29	-12.40	5.57	
13.93	4.03	9.92	-8.53	-0.78	111.02	-6.55	-18.10	-4.63	6.79	-11.25	-26.27	24.11	-35.38	20.47	3.67	-2.80	-11.09	19.87	13.18	-28.14	-5.20	2.94	4.13	-5.52	2.52	-1.17	8.29	-7.94	5.20	-15.72	18.83	21.09	-6.22	7.02	1.61	18.14	3.01	3.83	3.28	7.36	-0.28	-2.39	14.69	-3.30	-3.16	-12.57	-0.52	1.47	14.79	-11.20	2.40	4.35	5.72	5.84	-12.29	5.62	
14.60	3.89	9.78	-9.37	-0.96	110.86	-6.54	-18.10	-4.59	6.78	-11.17	-26.04	23.92	-35.47	20.32	3.65	-2.95	-11.22	19.66	13.33	-27.96	-5.19	2.91	4.12	-5.48	2.52	-1.16	8.20	-8.00	5.20	-15.63	19.01	21.04	-6.10	6.95	1.59	18.01	3.00	3.80	3.26	7.25	0.37	-2.47	15.18	-3.60	-3.33	-12.73	-0.55	1.42	15.28	-10.67	2.36	3.69	5.58	6.57	-12.22	5.69	
15.33	3.72	9.63	-10.30	-1.15	110.73	-6.46	-18.20	-4.70	6.64	-10.72	-25.25	23.51	-35.96	20.06	3.41	-3.22	-11.22	19.61	13.70	-27.99	-5.22	2.86	4.15	-5.45	2.52	-1.16	8.05	-8.06	5.42	-15.53	19.27	21.13	-6.03	6.91	1.58	18.07	3.00	3.82	3.31	7.70	-0.14	-2.38	14.58	-3.25	-3.08	-12.49	-0.51	1.42	15.78	-10.40	2.33	3.01	5.52	7.13	-12.05	5.73	
16.13	3.53	9.45	-11.48	-1.33	110.62	-6.47	-18.53	-4.94	6.47	-10.51	-24.88	23.35	-35.89	19.91	2.99	-3.46	-11.10	19.84	14.13	-28.23	-5.33	2.76	4.23	-5.48	2.52	-1.16	8.38	-8.30	5.70	-15.88	19.76	21.29	-6.07	6.92	1.58	18.25	3.02	3.85	3.24	7.59	-0.13	-2.36	14.77	-3.16	-3.45	-12.33	-0.54	1.22	16.03	-9.38	2.30	2.56	5.35	7.16	-11.92	5.72	
17.00	3.30	9.27	-12.55	-1.52	110.55	-6.65	-18.49	-4.89	6.65	-10.54	-24.56	22.86	-35.92	19.47	2.93	-3.18	-11.10	19.97	13.78	-28.21	-5.31	2.70	4.24	-5.66	2.52	-1.20	8.65	-8.25	5.57	-15.90	19.65	21.14	-6.22	7.03	1.61	18.31	3.02	3.86	3.23	7.79	0.00	-2.36	14.81	-3.18	-3.57	-12.22	-0.55	1.21	16.40	-9.17	2.29	2.30	5.37	7.01	-11.77	5.69	
17.96	3.02	9.07	-13.69	-1.70	110.52	-6.81	-18.58	-4.96	6.75	-10.34	-24.43	22.59	-35.84	19.21	3.04	-3.52	-11.41	19.71	14.21	-28.24	-5.38	2.62	4.26	-5.62	2.52	-1.19	8.69	-8.50	5.73	-15.62	19.90	20.33	-6.40	7.23	1.67	18.17	3.01	3.84	3.26	8.13	-0.06	-2.35	14.67	-3.12	-3.72	-12.05	-0.55	1.25	17.33	-8.94	2.21	1.05	5.00	8.44	-11.46	5.78	
19.01	2.70	8.84	-14.92	-1.89	110.46	-6.91	-18.65	-4.98	6.80	-10.17	-24.15	22.24	-35.81	18.88	3.20	-4.02	-11.73	19.34	14.78	-28.29	-5.43	2.56	4.33	-5.63	2.52	-1.19	8.63	-8.84	5.84	-15.44	20.61	19.70	-6.81	7.34	1.61	18.82	3.05	3.97	3.27	9.27	0.27	-2.24	13.24	-2.78	-4.77	-12.07	-0.67	1.22	18.02	-8.83	2.17	0.41	4.91	8.74	-11.07	5.75	
20.15	2.31	8.58	-16.26	-2.07	110.33	-6.89	-18.65	-4.96	7.08	-10.21	-23.03	21.35	-36.76	18.29	3.10	-4.06	-11.69	19.28	14.69	-27.62	-5.43	2.67	4.30	-6.17	2.53	-1.31	8.65	-8.89	5.84	-15.26	19.80	17.92	-6.46	7.47	1.90	17.24	2.95	3.65	3.20	9.57	0.53	-2.24	13.41	-2.74	-4.90	-11.93	-0.68	1.03	18.31	-8.28	2.17	0.62	4.82	8.96	-10.94	5.75	
21.39	1.86	8.29	-17.68	-2.25	110.22	-7.24	-18.45	-4.31	7.53	-10.45	-23.07	20.48	-36.74	17.51	3.25	-3.30	-11.78	19.65	13.52	-28.59	-5.59	2.56	4.45	-6.07	2.53	-1.29	9.11	-8.92	5.04	-15.49	19.11	16.81	-6.51	7.54	2.08	16.84	2.92	3.56	3.09	9.76	0.89	-2.25	13.93	-2.77	-4.59	-11.58	-0.61	0.80	18.71	-7.76	2.16	0.76	4.69	9.47	-10.74	5.76	
22.75	1.37	7.98	-18.95	-2.05	110.12	-7.77	-17.97	-4.29	7.76	-10.44	-22.93	20.29	-36.55	17.29	3.26	-3.04	-11.71	19.80	13.06	-28.86	-5.70	2.59	4.53	-6.08	2.53	-1.29	9.50	-8.94	5.03	-15.76	18.98	17.04	-6.91	7.83	2.09	17.33	2.95	3.66	2.71	9.95	2.04	-2.34	15.08	-3.11	-3.69	-10.56	-0.46	0.30	18.98	-7.64	2.18	1.98	4.64	9.57	-10.57	5.74	
24.23	0.74	7.64	-20.66	-2.50	110.11	-7.22	-18.52	-4.86	7.33	-9.87	-22.40	20.18	-36.30	17.14	2.72	-3.71	-11.79	19.44	14.13	-28.62	-5.67	2.66	4.50	-6.19	2.53	-1.31	9.11	-8.91	5.73	-15.84	18.95	16.78	-6.70	7.58	2.25	16.84	2.92	3.56	2.87	9.83	2.08	-2.34	16.18	-3.04	-3.63	-10.29	-0.44	0.24	18.20	-7.82	2.26	4.41	4.73	9.31	-10.43	5.69	
25.84	0.02	7.26	-22.31	-2.68	110.09	-7.19	-18.63	-5.12	7.25	-9.57	-21.96	19.89	-36.11	16.84	2.41	-3.97	-11.82	19.31	14.56	-28.57	-5.60	2.62	4.46	-6.12	2.53	-1.30	9.02	-9.02	6.04	-15.95	18.56	16.64	-6.06	6.73	2.46	15.52	2.85	3.29	2.86	10.13	2.16	-2.35	16.98	-3.03	-3.70	-9.47	-0.39	0.02	17.57	-8.55	2.31	7.26	4.68	8.78	-9.93	5.58	
27.58	-0.81	6.85	-24.12	-2.84	110.11	-7.11	-18.79	-5.50	6.96	-9.29	-21.35	19.49	-35.83	16.43	1.80	-3.98	-11.57	19.36	14.69	-29.17	-5.28	2.53	4.10	-6.06	2.53	-1.29	8.96	-8.89	6.38	-16.27	18.29	17.52	-5.86	6.35	2.54	14.68	2.80	3.12	2.85	10.48	2.00	-2.28	17.81	-2.69	-4.90	-8.57	-0.40	-0.27	16.62	-8.70	2.42	10.50	4.88	7.16	-9.06	5.36	
29.47	-1.80	6.41	-26.07	-2.93	110.16	-7.43	-18.90	-5.45	6.96	-9.19	-21.12	18.64	-35.22	15.55	1.11	-3.13	-11.39	20.09	13.88	-29.41	-5.27	2.28	4.14	-5.94	2.53	-1.26	9.49	-8.47	6.23	-16.89	17.70	18.88	-5.84	5.97	2.73	13.07	2.72	2.78	2.76	10.83	1.87	-2.25	18.81	-2.51	-5.68	-7.38	-0.32	-0.72	15.29	-7.20	2.63	14.34	5.64	4.95	-7.62	5.12	
31.48	-3.01	5.93	-28.47	-3.53	110.35	-6.77	-19.92	-6.07	6.18	-8.61	-20.36	17.76	-34.23	14.59	-0.39	-2.81	-11.03	20.68	14.22	-29.77	-4.98	1.95	4.00	-5.86	2.53	-1.24	9.39	-7.72	6.84	-17.61	17.06	17.28	-5.77	5.22	2.89	11.46	2.64	2.44	3.09	10.30	1.47	-2.23	20.77	-2.36	-5.97	-6.30	-0.22	-0.84	13.55	-8.29	2.76	18.55	5.92	2.44	-5.50	4.97	
33.62	-4.41	5.42	-30.78	-3.72	110.61	-6.90	-20.11	-6.47	5.84	-8.37	-20.06	17.11	-33.08	13.81	-1.92	-1.48	-10.19	22.23	13.05	-30.78	-4.83	1.36	3.98	-5.38	2.52	-1.14	10.02	-6.83	6.88	-18.67	16.65	18.79	-5.81	3.50	3.63	4.84	2.44	1.04	3.18	10.74	-0.08	-2.14	21.71	-1.97	-7.42	-4.78	-0.04	-1.25	12.09	-8.07	2.97	22.65	6.69	-0.19	-1.82	5.01	
35.83	-6.10	4.90	-33.66	-4.14	110.95	-7.18	-20.50	-6.42	5.72	-8.27	-20.36	16.10	-31.89	12.75	-3.48	0.43	-9.87	24.29	11.42	-32.22	-4.87	0.27	4.13	-4.41	2.50	-0.94	11.02	-5.68	6.18	-20.00	15.81	19.67	-6.84	1.19	5.18	-3.09	2.41	-0.66	3.46	10.47	-0.97	-2.17	23.05	-2.08	-8.10	-2.71	0.27	-1.34	10.39	-5.81	3.10	26.00	7.02	0.04	2.10	4.99	
